<svg width="32" height="32" viewBox="0 0 32 32" fill="none" xmlns="http://www.w3.org/2000/svg">
<g clip-path="url(#clip0_9_286)">
<path fill-rule="evenodd" clip-rule="evenodd" d="M16.0001 2.66663C23.3641 2.66663 29.3334 8.63596 29.3334 16C29.3334 23.364 23.3641 29.3333 16.0001 29.3333C8.63608 29.3333 2.66675 23.364 2.66675 16C2.66675 8.63596 8.63608 2.66663 16.0001 2.66663ZM18.1561 18.6453C14.7574 19.6459 11.786 21.7446 9.70675 24.6133C11.5321 25.9508 13.7371 26.6703 16.0001 26.6666C17.3845 26.6689 18.7561 26.4003 20.0374 25.876C19.618 23.416 18.9886 20.9965 18.1561 18.644V18.6453ZM20.7934 18.108C21.5027 20.1653 22.0734 22.288 22.4921 24.4653C24.4483 22.9654 25.8249 20.8345 26.3881 18.4346C24.5565 18.0005 22.6631 17.8899 20.7934 18.108ZM16.4681 14.5493C12.9003 15.8074 9.09724 16.2556 5.33475 15.8613L5.33341 16C5.33341 18.5693 6.24275 20.9266 7.75608 22.768C10.1245 19.6248 13.4242 17.3091 17.1854 16.1506C16.957 15.6125 16.7179 15.0791 16.4681 14.5506V14.5493ZM24.6507 9.75863C22.9239 11.2668 21.0006 12.5338 18.9334 13.5253C19.2454 14.192 19.5427 14.8653 19.8241 15.548C22.0907 15.2013 24.4241 15.2733 26.6641 15.7626C26.6196 13.603 25.9172 11.5085 24.6507 9.75863ZM11.4321 6.35996C10.0385 7.02227 8.80477 7.97831 7.81557 9.16245C6.82638 10.3466 6.10515 11.7308 5.70141 13.22C8.92195 13.5452 12.1748 13.1816 15.2441 12.1533C14.1276 10.1251 12.8529 8.18794 11.4321 6.35996ZM16.0001 5.33329C15.3601 5.33329 14.7334 5.38929 14.1267 5.49729C15.4617 7.29083 16.6661 9.1779 17.7307 11.144C19.5735 10.2664 21.2894 9.1443 22.8321 7.80796C20.9164 6.2057 18.4975 5.32953 16.0001 5.33329Z" fill="white" fill-opacity="0.5"/>
</g>
<defs>
<clipPath id="clip0_9_286">
<rect width="32" height="32" fill="white"/>
</clipPath>
</defs>
</svg>
