<svg width="64" height="64" viewBox="0 0 64 64" fill="none" xmlns="http://www.w3.org/2000/svg">
<path fill-rule="evenodd" clip-rule="evenodd" d="M36.832 49.384C34.892 53.384 33.02 54 32 54C30.98 54 29.108 53.384 27.168 49.384C25.68 46.312 24.58 41.952 24.172 36.636C29.379 37.1288 34.621 37.1288 39.828 36.636C39.42 41.952 38.32 46.312 36.828 49.384H36.832ZM39.984 30.588C37.432 30.856 34.76 31 32 31C29.24 31 26.568 30.856 24.016 30.588C24.164 23.804 25.388 18.288 27.168 14.616C29.108 10.616 30.98 10 32 10C33.02 10 34.892 10.616 36.832 14.616C38.612 18.288 39.832 23.804 39.984 30.588ZM45.896 35.812C45.556 41.876 44.396 47.204 42.552 51.308C45.7421 49.5643 48.4503 47.0573 50.4348 44.0111C52.4193 40.965 53.618 37.4746 53.924 33.852C51.44 34.648 48.744 35.308 45.896 35.812ZM53.568 27.64C51.28 28.456 48.728 29.156 45.964 29.696C45.74 23.012 44.548 17.136 42.552 12.692C45.3655 14.2316 47.809 16.3669 49.7117 18.9488C51.6144 21.5306 52.9305 24.4968 53.568 27.64ZM18.036 29.696C18.26 23.012 19.452 17.136 21.448 12.692C18.6345 14.2316 16.191 16.3669 14.2883 18.9488C12.3856 21.5306 11.0695 24.4968 10.432 27.64C12.72 28.456 15.272 29.156 18.036 29.696ZM10.08 33.852C10.386 37.4746 11.5847 40.965 13.5692 44.0111C15.5537 47.0573 18.2619 49.5643 21.452 51.308C19.612 47.204 18.452 41.876 18.108 35.812C15.3915 35.3375 12.7095 34.6827 10.08 33.852ZM60 32C60 24.5739 57.05 17.452 51.799 12.201C46.548 6.94999 39.4261 4 32 4C24.5739 4 17.452 6.94999 12.201 12.201C6.94999 17.452 4 24.5739 4 32C4 39.4261 6.94999 46.548 12.201 51.799C17.452 57.05 24.5739 60 32 60C39.4261 60 46.548 57.05 51.799 51.799C57.05 46.548 60 39.4261 60 32Z" fill="url(#paint0_radial_7_207)"/>
<defs>
<radialGradient id="paint0_radial_7_207" cx="0" cy="0" r="1" gradientUnits="userSpaceOnUse" gradientTransform="translate(32 32) scale(44)">
<stop stop-color="#00B7F1"/>
<stop offset="1" stop-color="#1300F1"/>
</radialGradient>
</defs>
</svg>
