<svg width="400" height="400" viewBox="0 0 400 400" fill="none" xmlns="http://www.w3.org/2000/svg">
<path d="M300.982 50.0489L300.821 50.6736C298.195 60.8697 294.999 70.2781 291.168 79.0873L291.168 79.0878C287.147 88.3093 282.459 96.7431 277.134 104.293L276.881 104.652L276.492 104.446C256.524 93.8714 233.626 88.2972 209.208 88.2972C184.727 88.2972 159.86 90.3232 138.339 104.798L138.338 104.799C118.399 118.177 109.467 141.119 115.468 163.205C122.156 187.731 145.073 203.997 172.486 203.37L172.488 203.37C190.037 203.055 206.666 200.974 221.935 197.224C243.215 191.994 262.854 183.078 279.751 171.08L280.144 170.8L280.437 171.183C294.827 189.973 300.722 214.375 297.044 240.43C288.55 300.825 232.694 349.951 172.497 349.951C171.038 349.951 169.61 349.919 168.182 349.856L300.982 50.0489ZM300.982 50.0489H300.337M300.982 50.0489H300.337M300.337 50.0489H130.27L137.232 0.5H359.421L355.492 28.7399L355.491 28.7406C355.491 28.7411 355.491 28.7416 355.491 28.7421C355.081 31.5224 354.671 34.2964 354.199 37.0695L354.199 37.0718C350.385 60.1004 344.619 80.3112 336.557 98.8449C330.731 112.24 323.773 124.466 315.716 135.46L315.483 135.778M300.337 50.0489L315.483 135.778M315.483 135.778L315.737 136.078C341.143 166.133 351.937 205.574 346.053 247.336C334.282 331.225 256.397 399.5 172.497 399.5C170.39 399.5 168.343 399.439 166.258 399.377L166.173 399.374C166.172 399.374 166.171 399.374 166.17 399.374C128.067 397.831 93.0758 379.173 70.1225 348.174L69.7207 348.472M315.483 135.778L69.7207 348.472M69.7207 348.472L70.1224 348.174C46.6693 316.521 38.8383 276.599 48.6148 238.506L96.5108 251.017M69.7207 348.472L96.5108 251.017M209.497 149.25V149.282L210.115 149.131C217.911 147.228 225.389 144.627 232.393 141.455L233.727 140.851L232.303 140.513C224.94 138.766 217.231 137.878 209.208 137.878C195.3 137.878 181.521 138.92 168.455 144.329L168.453 144.33C167.374 144.781 166.181 145.399 165.249 146.221C164.315 147.046 163.601 148.119 163.601 149.467C163.601 151.477 165.352 153.037 167.11 153.578L167.113 153.579C168.497 153.996 170.176 154.098 171.821 154.09C172.902 154.085 174.004 154.031 175.014 153.981C175.535 153.956 176.033 153.932 176.49 153.916C176.491 153.916 176.491 153.916 176.492 153.916L209.497 149.25ZM209.497 149.25C202.984 150.819 196.384 151.944 189.726 152.681L209.497 149.25ZM96.5108 251.017C90.5399 274.493 95.4016 299.15 109.88 318.693L110.282 318.395L96.5108 251.017Z" stroke="url(#paint0_linear_1311_2)"/>
<defs>
<linearGradient id="paint0_linear_1311_2" x1="359.995" y1="3.77513e-05" x2="-0.286706" y2="44.9378" gradientUnits="userSpaceOnUse">
<stop stop-color="#F1BC00"/>
<stop offset="0.5" stop-color="#F10000"/>
<stop offset="1" stop-color="#5C00F1"/>
</linearGradient>
</defs>
</svg>
